<?xml version="1.0" standalone="no"?>
<!DOCTYPE svg PUBLIC "-//W3C//DTD SVG 20010904//EN"
 "http://www.w3.org/TR/2001/REC-SVG-20010904/DTD/svg10.dtd">
<svg version="1.0" xmlns="http://www.w3.org/2000/svg"
 width="232.000000pt" height="63.000000pt" viewBox="0 0 232.000000 63.000000"
 preserveAspectRatio="xMidYMid meet">

<g transform="translate(0.000000,63.000000) scale(0.100000,-0.100000)"
fill="#000000" stroke="none">
<path d="M1570 310 c0 -40 4 -70 10 -70 6 0 10 30 10 70 0 40 -4 70 -10 70 -6
0 -10 -30 -10 -70z"/>
<path d="M530 305 c0 -51 3 -65 15 -65 12 0 15 14 15 65 0 51 -3 65 -15 65
-12 0 -15 -14 -15 -65z"/>
<path d="M1418 339 c-2 -5 -18 -11 -36 -11 -31 -1 -32 -2 -32 -45 0 -23 5 -43
10 -43 6 0 10 9 10 19 0 32 11 51 30 51 14 0 20 -9 22 -32 2 -25 8 -34 26 -36
25 -4 30 13 7 22 -8 3 -15 15 -15 26 0 11 7 20 15 20 8 0 15 5 15 10 0 6 -7
10 -15 10 -8 0 -15 5 -15 10 0 13 -17 13 -22 -1z"/>
<path d="M580 284 c0 -24 5 -44 10 -44 6 0 10 14 10 30 0 18 6 33 15 36 23 9
18 22 -10 22 -23 0 -25 -4 -25 -44z"/>
<path d="M700 320 c0 -5 9 -10 19 -10 31 0 34 -18 4 -22 -20 -2 -28 -9 -28
-23 0 -16 7 -20 38 -22 35 -1 37 0 37 31 0 18 -5 37 -12 44 -15 15 -58 16 -58
2z m45 -50 c-3 -5 -13 -10 -21 -10 -8 0 -12 5 -9 10 3 6 13 10 21 10 8 0 12
-4 9 -10z"/>
<path d="M842 318 c-15 -15 -15 -51 0 -66 7 -7 23 -12 36 -12 13 0 20 -4 17
-10 -4 -6 -16 -9 -28 -8 -12 2 -24 -1 -27 -7 -7 -15 49 -19 66 -4 9 7 14 31
14 65 l0 54 -33 0 c-18 0 -38 -5 -45 -12z m56 -31 c4 -20 -25 -34 -40 -19 -15
15 -1 44 19 40 10 -2 19 -11 21 -21z"/>
<path d="M952 318 c-6 -6 -12 -25 -12 -40 0 -21 6 -29 25 -34 29 -7 59 2 51
15 -3 5 -15 7 -25 4 -10 -3 -22 0 -25 6 -5 7 4 11 24 11 27 0 31 3 28 23 -3
25 -45 36 -66 15z m43 -18 c3 -5 -3 -10 -15 -10 -12 0 -18 5 -15 10 3 6 10 10
15 10 5 0 12 -4 15 -10z"/>
<path d="M1046 314 c-9 -8 -16 -22 -16 -29 0 -44 73 -61 91 -21 23 50 -36 90
-75 50z m53 -18 c17 -20 -13 -43 -34 -26 -12 10 -13 16 -4 26 6 8 15 14 19 14
4 0 13 -6 19 -14z"/>
<path d="M1140 258 c0 -39 4 -68 10 -68 6 0 10 13 10 29 0 24 3 28 20 24 26
-7 50 13 50 42 0 30 -19 44 -58 43 l-32 -1 0 -69z m68 29 c4 -20 -25 -34 -40
-19 -15 15 -1 44 19 40 10 -2 19 -11 21 -21z"/>
<path d="M1256 314 c-9 -8 -16 -22 -16 -29 0 -44 73 -61 91 -21 23 50 -36 90
-75 50z m53 -18 c9 -10 8 -16 -4 -26 -21 -17 -51 6 -34 26 6 8 15 14 19 14 4
0 13 -6 19 -14z"/>
<path d="M1485 321 c-4 -7 4 -11 19 -11 32 0 34 -17 4 -22 -15 -2 -23 -10 -23
-23 0 -16 7 -20 33 -21 33 -1 33 0 30 40 -3 36 -6 41 -30 44 -14 2 -29 -2 -33
-7z m45 -51 c0 -5 -7 -10 -15 -10 -8 0 -15 5 -15 10 0 6 7 10 15 10 8 0 15 -4
15 -10z"/>
</g>
</svg>
