<?xml version="1.0" standalone="no"?>
<!DOCTYPE svg PUBLIC "-//W3C//DTD SVG 20010904//EN"
 "http://www.w3.org/TR/2001/REC-SVG-20010904/DTD/svg10.dtd">
<svg version="1.0" xmlns="http://www.w3.org/2000/svg"
 width="955.000000pt" height="509.000000pt" viewBox="0 0 955.000000 509.000000"
 preserveAspectRatio="xMidYMid meet">

<g transform="translate(0.000000,509.000000) scale(0.100000,-0.100000)"
fill="#000000" stroke="none">
<path d="M10 2545 l0 -2545 3908 0 3907 1 785 1265 c432 696 786 1269 788
1274 2 5 -348 579 -777 1277 l-779 1268 -3916 3 -3916 2 0 -2545z m1578 1331
c17 -17 86 -399 78 -432 -12 -48 -93 -58 -116 -14 -9 18 -80 376 -80 408 0 7
11 24 26 38 19 20 31 24 52 19 15 -3 33 -12 40 -19z m-585 -489 c94 -83 166
-154 171 -170 13 -37 -19 -81 -62 -85 -32 -3 -32 -3 -267 202 -126 110 -138
134 -89 183 42 42 68 29 247 -130z m6047 117 c94 -23 254 -104 332 -168 85
-70 168 -170 210 -253 l33 -64 66 7 c46 4 93 1 150 -11 281 -56 480 -287 496
-576 18 -303 -174 -571 -462 -644 -39 -10 -107 -15 -199 -15 -130 0 -141 2
-163 22 -23 21 -30 67 -17 102 12 33 49 41 204 46 150 5 158 6 222 38 177 87
281 287 251 482 -34 220 -222 389 -434 390 -25 0 -82 -9 -128 -21 -45 -11 -84
-19 -85 -17 -1 1 -13 32 -25 68 -57 163 -184 313 -327 387 -98 50 -137 63
-239 78 l-80 11 -3 68 c-4 99 -3 100 71 92 34 -4 91 -14 127 -22z m-5171 -185
c87 -18 119 -92 65 -146 -23 -23 -31 -25 -72 -19 -122 17 -179 18 -245 2 -175
-41 -302 -152 -367 -321 -20 -50 -24 -79 -24 -170 0 -95 4 -119 27 -178 50
-129 143 -234 259 -291 92 -47 162 -60 282 -53 99 5 99 5 128 -23 58 -58 23
-123 -77 -141 -183 -34 -410 38 -565 179 -241 218 -293 609 -115 876 84 127
245 241 395 280 66 18 239 20 309 5z m828 -344 c28 -13 59 -35 68 -49 16 -24
16 -28 1 -51 -21 -31 -34 -31 -96 1 -43 23 -60 26 -117 22 -59 -4 -69 -7 -94
-36 -34 -38 -37 -70 -9 -100 27 -28 60 -45 164 -83 142 -51 205 -124 193 -225
-9 -81 -64 -133 -170 -161 -77 -20 -159 -11 -240 27 -53 25 -69 46 -60 78 9
34 47 38 106 11 37 -18 67 -24 116 -24 104 1 163 45 147 110 -8 32 -45 55
-163 101 -119 46 -169 83 -195 141 -38 86 -6 180 78 229 79 46 179 50 271 9z
m1965 -321 c70 -186 126 -345 123 -351 -2 -7 -19 -13 -38 -13 -45 0 -69 28
-99 113 l-23 67 -133 0 c-97 0 -134 -3 -137 -12 -51 -146 -68 -171 -118 -166
-23 2 -33 8 -34 23 -1 11 53 166 120 345 101 268 126 327 146 337 53 26 58 18
193 -343z m1967 332 c19 -23 253 -667 247 -681 -7 -19 -55 -19 -82 0 -12 7
-33 48 -48 90 l-28 75 -132 0 -131 0 -23 -65 c-32 -88 -55 -115 -98 -115 -19
0 -37 6 -39 13 -3 7 40 134 95 282 156 420 150 406 173 414 25 9 52 4 66 -13z
m-3097 -3 c17 -15 18 -39 18 -335 0 -201 -4 -326 -10 -339 -12 -22 -59 -26
-78 -7 -9 9 -12 98 -12 339 0 284 2 330 16 343 20 21 43 20 66 -1z m2359 7
c22 -12 26 -59 7 -78 -8 -8 -47 -12 -110 -12 l-98 0 0 -286 c0 -177 -4 -293
-10 -305 -12 -22 -59 -26 -78 -7 -9 9 -12 90 -12 305 l0 293 -98 0 c-106 0
-122 7 -122 50 0 14 5 31 12 38 16 16 480 17 509 2z m-5138 -258 c142 -7 160
-10 179 -29 27 -27 28 -76 2 -104 -19 -21 -23 -21 -210 -14 -262 9 -292 14
-317 46 -14 20 -17 35 -12 58 10 45 43 59 129 54 39 -2 142 -7 229 -11z m383
-613 c10 -11 17 -34 17 -51 0 -36 10 -26 -216 -209 -163 -131 -188 -141 -226
-93 -26 33 -27 65 -3 92 30 34 329 272 353 281 29 10 53 4 75 -20z m487 -271
c9 -11 17 -26 17 -32 0 -11 -62 -330 -75 -383 -13 -57 -91 -74 -122 -27 -16
25 -15 34 21 221 20 108 41 204 47 215 22 41 79 44 112 6z"/>
<path d="M4497 2803 c-7 -11 -87 -222 -87 -228 0 -3 41 -5 90 -5 53 0 90 4 90
10 0 10 -79 222 -85 228 -2 2 -5 0 -8 -5z"/>
<path d="M6553 2706 c-24 -62 -43 -117 -43 -124 0 -8 27 -12 90 -12 50 0 90 2
90 4 0 4 -91 240 -93 243 -1 0 -21 -49 -44 -111z"/>
</g>
</svg>
